<svg xmlns="http://www.w3.org/2000/svg" viewBox="0 0 32 32" id="Flag-Brazil--Streamline-Twemoji" height="32" width="32">
  <desc>
    Flag Brazil Streamline Emoji: https://streamlinehq.com
  </desc>
  <path fill="#009b3a" d="M32 24c0 1.9635555555555555 -1.5919999999999999 3.5555555555555554 -3.5555555555555554 3.5555555555555554H3.5555555555555554c-1.9635555555555555 0 -3.5555555555555554 -1.5919999999999999 -3.5555555555555554 -3.5555555555555554V8c0 -1.9635555555555555 1.5919999999999999 -3.5555555555555554 3.5555555555555554 -3.5555555555555554h24.888888888888886c1.9635555555555555 0 3.5555555555555554 1.5919999999999999 3.5555555555555554 3.5555555555555554v16z" stroke-width="0.8889"></path>
  <path fill="#fedf01" d="M29.091555555555555 16 16 25.887999999999998 2.908444444444444 16 16 6.111111111111111z" stroke-width="0.8889"></path>
  <path fill="#002776" d="M10.238222222222221 15.932444444444442a5.740444444444444 5.740444444444444 0 1 0 11.480888888888888 0 5.740444444444444 5.740444444444444 0 1 0 -11.480888888888888 0" stroke-width="0.8889"></path>
  <path fill="#cbe9d4" d="M10.912888888888888 13.232888888888889c-0.2951111111111111 0.5519999999999999 -0.496 1.158222222222222 -0.5973333333333334 1.7982222222222222 3.551111111111111 -0.2577777777777778 8.370666666666667 1.6808888888888889 10.43911111111111 4.084444444444444 0.35733333333333334 -0.5368888888888889 0.6222222222222221 -1.1377777777777778 0.7848888888888889 -1.7813333333333332 -2.5528888888888885 -2.4959999999999996 -7.037333333333333 -4.115555555555555 -10.626666666666667 -4.101333333333333z" stroke-width="0.8889"></path>
  <path fill="#88c9f9" d="M10.666666666666666 16.20711111111111h0.8888888888888888v0.8888888888888888h-0.8888888888888888zm0.8888888888888888 1.7777777777777777h0.8888888888888888v0.8888888888888888h-0.8888888888888888z" stroke-width="0.8889"></path>
  <path fill="#55acee" d="M13.333333333333332 16.20711111111111h0.8888888888888888v0.8888888888888888h-0.8888888888888888zm1.7777777777777777 0.8888888888888888h0.8888888888888888v0.8888888888888888h-0.8888888888888888zm3.5555555555555554 1.7777777777777777h0.8888888888888888v0.8888888888888888h-0.8888888888888888zm-2.6666666666666665 0.8888888888888888h0.8888888888888888v0.8888888888888888h-0.8888888888888888zm2.6666666666666665 -5.333333333333333h0.8888888888888888v0.8888888888888888h-0.8888888888888888z" stroke-width="0.8889"></path>
  <path fill="#3b88c3" d="M16.88888888888889 17.98488888888889h0.8888888888888888v0.8888888888888888h-0.8888888888888888z" stroke-width="0.8889"></path>
</svg>