<svg xmlns="http://www.w3.org/2000/svg" viewBox="0 0 32 32" id="Flag-United-States--Streamline-Twemoji" height="32" width="32">
  <desc>
    Flag United States Streamline Emoji: https://streamlinehq.com
  </desc>
  <path fill="#b22334" d="M31.506666666666664 6.222222222222221C30.890666666666668 5.163555555555555 29.757333333333328 4.444444444444445 28.444444444444443 4.444444444444445H16v1.7777777777777777h15.506666666666666zM0 22.22222222222222h32v1.7777777777777777H0zm16 -7.111111111111111h16v1.7777777777777777H16zm0 -3.5555555555555554h16v1.7777777777777777H16zM0 18.666666666666664h32v1.7777777777777777H0zm3.5555555555555554 8.88888888888889h24.888888888888886c1.312888888888889 0 2.446222222222222 -0.7191111111111111 3.0622222222222217 -1.7777777777777777H0.49333333333333335c0.6159999999999999 1.0586666666666666 1.7493333333333332 1.7777777777777777 3.0622222222222217 1.7777777777777777zM16 8h16v1.7777777777777777H16z" stroke-width="0.8889"></path>
  <path fill="#eeeeee" d="M0.060444444444444446 24.603555555555552c0.015111111111111112 0.08266666666666667 0.031999999999999994 0.16533333333333333 0.05244444444444444 0.24622222222222223 0.02311111111111111 0.08977777777777778 0.051555555555555556 0.176 0.08177777777777777 0.2631111111111111 0.0791111111111111 0.23022222222222222 0.1751111111111111 0.4524444444444444 0.296 0.6604444444444444L0.49333333333333335 25.777777777777775h31.013333333333332l0.0017777777777777776 -0.0035555555555555553c0.12 -0.2071111111111111 0.21599999999999997 -0.4293333333333333 0.2951111111111111 -0.6586666666666666 0.030222222222222223 -0.088 0.059555555555555556 -0.176 0.08266666666666667 -0.26755555555555555 0.020444444444444442 -0.07999999999999999 0.037333333333333336 -0.16177777777777777 0.05244444444444444 -0.24444444444444446 0.036444444444444446 -0.19555555555555554 0.06133333333333334 -0.39644444444444443 0.06133333333333334 -0.6035555555555555H0c0 0.2071111111111111 0.024888888888888887 0.4071111111111111 0.060444444444444446 0.6035555555555555zM0 20.444444444444443h32v1.7777777777777777H0zm0 -3.5555555555555554v1.7777777777777777h32v-1.7777777777777777H16zm16 -3.5555555555555554h16v1.7777777777777777H16zm0 -3.5555555555555554h16v1.7777777777777777H16zM0 8c0 -0.2071111111111111 0.026666666666666665 -0.4062222222222222 0.060444444444444446 -0.6035555555555555C0.024888888888888887 7.592888888888888 0 7.792888888888888 0 8zm0.49333333333333335 -1.7777777777777777 -0.0026666666666666666 0.0044444444444444444L0.49333333333333335 6.222222222222221zM0.11377777777777777 7.150222222222222c0.022222222222222223 -0.09066666666666666 0.05333333333333333 -0.1768888888888889 0.08177777777777777 -0.26399999999999996 -0.030222222222222223 0.08711111111111111 -0.058666666666666666 0.17422222222222222 -0.08177777777777777 0.26399999999999996zM16 8h16c0 -0.2071111111111111 -0.024888888888888887 -0.408 -0.06133333333333334 -0.6044444444444445 -0.015111111111111112 -0.08177777777777777 -0.031111111111111114 -0.16355555555555554 -0.05244444444444444 -0.24355555555555555 -0.023999999999999997 -0.09155555555555554 -0.05244444444444444 -0.18044444444444444 -0.08355555555555555 -0.26844444444444443 -0.0791111111111111 -0.22933333333333333 -0.1751111111111111 -0.45066666666666666 -0.2951111111111111 -0.6577777777777777 0.0008888888888888888 -0.0008888888888888888 0 -0.0026666666666666666 -0.0008888888888888888 -0.0035555555555555553H16v1.7777777777777777z" stroke-width="0.8889"></path>
  <path fill="#3c3b6e" d="M16 4.444444444444445H3.5555555555555554C1.5919999999999999 4.444444444444445 0 6.036444444444444 0 8v8.88888888888889h16V4.444444444444445z" stroke-width="0.8889"></path>
  <path fill="#ffffff" d="m1.7786666666666664 6.867555555555555 0.5493333333333333 0.3991111111111111 -0.20977777777777776 0.6444444444444444L2.6666666666666665 7.512888888888888l0.5493333333333333 0.3982222222222222 -0.20977777777777776 -0.6444444444444444L3.5555555555555554 6.867555555555555h-0.6791111111111111L2.6666666666666665 6.222222222222221l-0.20888888888888887 0.6453333333333333zm1.7777777777777777 1.7777777777777777 0.5493333333333333 0.3991111111111111 -0.20977777777777776 0.6444444444444444 0.5484444444444444 -0.3982222222222222 0.5493333333333333 0.3982222222222222 -0.20977777777777776 -0.6444444444444444L5.333333333333333 8.645333333333333h-0.6791111111111111L4.444444444444445 8l-0.20888888888888887 0.6453333333333333zm3.5555555555555554 0 0.5493333333333333 0.3991111111111111 -0.20977777777777776 0.6444444444444444 0.5484444444444444 -0.3982222222222222 0.5493333333333333 0.3982222222222222 -0.20977777777777776 -0.6444444444444444 0.5493333333333333 -0.3991111111111111h-0.6791111111111111L8 8l-0.20888888888888887 0.6453333333333333zm3.5555555555555554 0 0.5493333333333333 0.3991111111111111 -0.20977777777777776 0.6444444444444444 0.5484444444444444 -0.3982222222222222 0.5493333333333333 0.3982222222222222 -0.20977777777777776 -0.6444444444444444 0.5493333333333333 -0.3991111111111111h-0.6791111111111111L11.555555555555555 8l-0.20888888888888887 0.6453333333333333zm-7.111111111111111 3.5555555555555554 0.5493333333333333 0.3991111111111111 -0.20977777777777776 0.6444444444444444 0.5484444444444444 -0.3982222222222222 0.5493333333333333 0.3982222222222222 -0.20977777777777776 -0.6444444444444444 0.5493333333333333 -0.3991111111111111h-0.6791111111111111L4.444444444444445 11.555555555555555l-0.20888888888888887 0.6453333333333333zm3.5555555555555554 0 0.5493333333333333 0.3991111111111111 -0.20977777777777776 0.6444444444444444 0.5484444444444444 -0.3982222222222222 0.5493333333333333 0.3982222222222222 -0.20977777777777776 -0.6444444444444444 0.5493333333333333 -0.3991111111111111h-0.6791111111111111L8 11.555555555555555l-0.20888888888888887 0.6453333333333333zm3.5555555555555554 0 0.5493333333333333 0.3991111111111111 -0.20977777777777776 0.6444444444444444 0.5484444444444444 -0.3982222222222222 0.5493333333333333 0.3982222222222222 -0.20977777777777776 -0.6444444444444444 0.5493333333333333 -0.3991111111111111h-0.6791111111111111L11.555555555555555 11.555555555555555l-0.20888888888888887 0.6453333333333333zm-5.333333333333333 -5.333333333333333 0.5493333333333333 0.3991111111111111 -0.20977777777777776 0.6444444444444444L6.222222222222221 7.512888888888888l0.5493333333333333 0.3982222222222222 -0.20977777777777776 -0.6444444444444444L7.111111111111111 6.867555555555555h-0.6791111111111111L6.222222222222221 6.222222222222221l-0.20888888888888887 0.6453333333333333zm3.5555555555555554 0 0.5493333333333333 0.3991111111111111 -0.20977777777777776 0.6444444444444444 0.5484444444444444 -0.3982222222222222 0.5493333333333333 0.3982222222222222 -0.20977777777777776 -0.6444444444444444 0.5493333333333333 -0.3991111111111111h-0.6791111111111111L9.777777777777777 6.222222222222221l-0.20888888888888887 0.6453333333333333zm3.5555555555555554 0 0.5493333333333333 0.3991111111111111 -0.20977777777777776 0.6444444444444444 0.5484444444444444 -0.3982222222222222 0.5493333333333333 0.3982222222222222 -0.20977777777777776 -0.6444444444444444 0.5493333333333333 -0.3991111111111111h-0.6791111111111111L13.333333333333332 6.222222222222221l-0.20888888888888887 0.6453333333333333zm-10.666666666666666 3.5555555555555554 0.5493333333333333 0.3991111111111111 -0.20977777777777776 0.6444444444444444 0.5484444444444444 -0.3982222222222222 0.5493333333333333 0.3982222222222222 -0.20977777777777776 -0.6444444444444444 0.5493333333333333 -0.3991111111111111h-0.6791111111111111L2.6666666666666665 9.777777777777777l-0.20888888888888887 0.6453333333333333zM5.673777777777778 11.466666666666667 6.222222222222221 11.068444444444443l0.5493333333333333 0.3982222222222222 -0.20977777777777776 -0.6444444444444444 0.5493333333333333 -0.3991111111111111h-0.6791111111111111L6.222222222222221 9.777777777777777l-0.20888888888888887 0.6453333333333333h-0.6791111111111111l0.5493333333333333 0.3991111111111111zm3.2159999999999997 -1.0435555555555553 0.5493333333333333 0.3991111111111111 -0.20977777777777776 0.6444444444444444 0.5484444444444444 -0.3982222222222222 0.5493333333333333 0.3982222222222222 -0.20977777777777776 -0.6444444444444444 0.5493333333333333 -0.3991111111111111h-0.6791111111111111L9.777777777777777 9.777777777777777l-0.20888888888888887 0.6453333333333333zm3.5555555555555554 0 0.5493333333333333 0.3991111111111111 -0.20977777777777776 0.6444444444444444 0.5484444444444444 -0.3982222222222222 0.5493333333333333 0.3982222222222222 -0.20977777777777776 -0.6444444444444444 0.5493333333333333 -0.3991111111111111h-0.6791111111111111L13.333333333333332 9.777777777777777l-0.20888888888888887 0.6453333333333333zm-10.666666666666666 3.5555555555555554 0.5493333333333333 0.3991111111111111 -0.20977777777777776 0.6444444444444444 0.5484444444444444 -0.3982222222222222 0.5493333333333333 0.3982222222222222 -0.20977777777777776 -0.6444444444444444 0.5493333333333333 -0.3991111111111111h-0.6791111111111111L2.6666666666666665 13.333333333333332l-0.20888888888888887 0.6453333333333333zM5.673777777777778 15.02222222222222 6.222222222222221 14.624l0.5493333333333333 0.3982222222222222 -0.20977777777777776 -0.6444444444444444 0.5493333333333333 -0.3991111111111111h-0.6791111111111111L6.222222222222221 13.333333333333332l-0.20888888888888887 0.6453333333333333h-0.6791111111111111l0.5493333333333333 0.3991111111111111zm3.2159999999999997 -1.0435555555555553 0.5493333333333333 0.3991111111111111 -0.20977777777777776 0.6444444444444444 0.5484444444444444 -0.3982222222222222 0.5493333333333333 0.3982222222222222 -0.20977777777777776 -0.6444444444444444 0.5493333333333333 -0.3991111111111111h-0.6791111111111111L9.777777777777777 13.333333333333332l-0.20888888888888887 0.6453333333333333zm3.5555555555555554 0 0.5493333333333333 0.3991111111111111 -0.20977777777777776 0.6444444444444444 0.5484444444444444 -0.3982222222222222 0.5493333333333333 0.3982222222222222 -0.20977777777777776 -0.6444444444444444 0.5493333333333333 -0.3991111111111111h-0.6791111111111111L13.333333333333332 13.333333333333332l-0.20888888888888887 0.6453333333333333z" stroke-width="0.8889"></path>
</svg>